PathFileType	4	(X/Y/Z)	C:/Users/beibeiliu/ov580/test_trc/User1\sequence.4_training_dense_left.trc
DataRate	CameraRate	NumFrames	NumMarkers	Units	OrigDataRate	OrigDataStartFrame	OrigNumFrames
120	120	24	19	mm	120	189	251
Frame#	Time	ThumbCMC			ThumbMCP			ThumbIP			ThumbTip			IndexMCP			IndexPIP			IndexTip			MiddleMCP			MiddlePIP			MiddleTip			RingMCP			RingPIP			RingTip			PinkyMCP			PinkyPIP			PinkyTip			BackHand1			BackHand2			BackHand3	
		X0	Y0	Z0	X1	Y1	Z1	X2	Y2	Z2	X3	Y3	Z3	X4	Y4	Z4	X5	Y5	Z5	X6	Y6	Z6	X7	Y7	Z7	X8	Y8	Z8	X9	Y9	Z9	X10	Y10	Z10	X11	Y11	Z11	X12	Y12	Z12	X13	Y13	Z13	X14	Y14	Z14	X15	Y15	Z15	X16	Y16	Z16	X17	Y17	Z17	X18	Y18	Z18	
188	1.56667	-209.192	117.089	-7.53256	-192.75	109.587	-44.8382	-196.179	104.932	-74.9292	-212.375	89.9805	-94.8209	-228.678	136.015	-81.3264	-208.457	112.11	-87.9434	-210.401	110.673	-49.516	-248.34	118.734	-85.4449	-220.883	94.9552	-88.6157	-221.329	93.2375	-45.9146	-253.749	94.3869	-83.0378	-229.033	73.7443	-72.6273	-234.016	81.1749	-39.2151	-261.444	75.9272	-72.1657	-239.973	62.5261	-61.2181	-242.194	72.0031	-29.8071	-281.055	107.674	-26.4333	-273.343	96.3988	12.0797	-253.622	127.697	-5.54406	
189	1.575	-203.51	114.378	-9.45688	-191.166	102.07	-43.6641	-189.115	94.5322	-72.8957	-206.78	80.4653	-95.9494	-216.612	133.579	-81.739	-199.975	103.664	-87.1736	-200.994	104.601	-51.2785	-236.972	116.915	-88.2838	-216.997	87.1022	-87.8456	-220.365	88.3556	-46.4071	-244.701	94.971	-84.2121	-226.596	69.0115	-68.3539	-232.045	81.2534	-36.3144	-259.704	75.7565	-72.6748	-238.804	65.104	-58.7495	-241.397	78.295	-27.8801	-271.719	115.078	-24.9243	-271.273	104.785	10.19	-242.322	129.858	-7.0368	
190	1.58333	-195.73	112.357	-10.1454	-183.698	94.7143	-45.6819	-187.277	85.6986	-73.9596	-204.248	72.5938	-93.2147	-209.698	125.399	-83.6091	-200.804	94.1715	-86.5916	-198.951	100.411	-49.4277	-229.861	110.892	-90.291	-210.997	80.2668	-83.1195	-218.05	84.7268	-45.1756	-247.313	90.9318	-82.0208	-225.498	68.2649	-68.5026	-233.141	78.7033	-35.4644	-261.394	80.7896	-69.2209	-239.406	64.2597	-54.9776	-240.069	82.1025	-25.1601	-268.143	118.079	-32.7506	-267.967	112.497	3.47616	-234.034	132.723	-7.16167	
191	1.59167	-194.857	109.967	-11.85	-180.747	88.0613	-39.5736	-185.858	77.334	-66.5478	-206.473	66.145	-86.0229	-203.727	115.517	-86.1971	-196.342	83.7459	-83.7161	-198.813	93.406	-49.2585	-225.892	104.875	-90.0938	-215.376	72.47	-82.2025	-216.453	83.2542	-41.2123	-239.349	89.062	-82.4229	-228.811	63.6024	-63.0947	-232.975	78.867	-33.736	-257.874	81.5016	-67.3766	-241.841	62.4957	-52.7597	-240.238	84.9093	-25.977	-262.578	124.307	-33.0277	-262.636	121.447	2.03745	-230.968	133.289	-10.4858	
192	1.6	-188.251	106.531	-8.50173	-179.147	81.6386	-39.1996	-188.879	70.2761	-64.8877	-209.096	54.9881	-83.5165	-199.875	105.396	-87.8628	-200.13	75.7793	-81.0072	-193.658	90.1368	-46.5775	-225.178	100.027	-87.7781	-217.887	66.5943	-77.4443	-216.623	77.7088	-39.5603	-243.15	83.9522	-78.7003	-230.623	59.5421	-58.8898	-228.441	80.3652	-30.5117	-263.32	79.2488	-64.0132	-245.767	59.8904	-48.0987	-239.887	81.6778	-20.8176	-256.917	125.786	-30.7535	-254.319	126.729	6.28073	-222.969	134.892	-12.7802	
193	1.60833	-186.104	105.877	-5.52625	-182.458	77.1515	-33.6195	-191.212	63.4074	-61.4884	-209.116	48.6342	-77.2997	-198.42	96.9549	-86.8382	-197.373	68.7843	-75.9743	-197.402	86.0298	-43.1012	-222.391	90.4555	-87.4311	-218.943	61.4608	-73.4709	-217.829	76.5858	-36.2337	-244.043	80.0329	-76.1574	-232.009	58.1724	-54.7455	-231.003	75.4948	-28.4237	-260.554	83.0526	-61.4177	-247.316	60.3132	-43.6497	-240.136	86.249	-17.9378	-254.247	127.469	-34.8407	-255.358	133.641	3.84991	-216.774	136.325	-15.3956	
194	1.61667	-187.43	104.33	-8.73314	-181.358	73.3115	-32.0923	-191.879	58.9669	-53.3622	-214.276	49.328	-70.5275	-198.902	92.5539	-84.185	-198.705	63.4944	-69.9169	-195.055	79.3601	-41.9163	-220.898	89.0593	-85.2358	-218.831	57.9759	-67.3263	-218.647	74.9082	-34.0674	-244.152	83.2007	-73.7724	-236.084	57.0944	-53.7059	-229.919	80.0025	-24.6241	-262.048	83.4507	-59.58	-246.765	64.4467	-39.8661	-238.653	88.1442	-19.0545	-250.261	130.699	-32.8286	-248.78	135.857	3.03783	-214.946	137.317	-14.4666	
195	1.625	-185.927	103.879	-4.105	-183.17	72.3047	-26.6544	-192.505	55.9667	-52.6475	-214.258	43.2382	-64.741	-197.031	91.6634	-81.9211	-200.976	60.0167	-67.1012	-195.986	79.0416	-39.2457	-222.174	85.7028	-84.1623	-222.877	56.4029	-67.6542	-215.548	77.34	-30.6124	-246.197	81.8449	-70.7597	-238.713	56.4157	-49.9812	-231.958	76.3818	-23.0427	-260.756	82.0388	-57.0104	-247.897	64.3104	-40.514	-237.879	90.6345	-19.8086	-246.54	133.079	-34.3562	-244.506	139.839	-0.866117	-211.867	138.316	-20.231	
196	1.63333	-187.274	105.519	-4.65099	-183.494	72.0627	-22.6826	-192.582	52.8817	-45.5229	-219.766	41.8717	-63.5747	-195.535	87.9148	-80.3755	-202.447	59.1412	-68.1637	-198.017	77.8779	-36.1474	-222.297	86.4227	-81.0839	-222.773	55.4788	-60.2794	-212.698	77.3437	-27.45	-244.222	79.6381	-69.9868	-233.27	56.8423	-45.8447	-228.604	78.3816	-21.3442	-260.084	83.7873	-55.1292	-248.03	65.135	-36.1001	-239.497	90.7147	-16.3822	-246.654	133.63	-34.1289	-244.988	144.866	0.206149	-207.12	139.069	-16.5795	
197	1.64167	-181.901	105.108	-3.59847	-183.742	70.6514	-19.4177	-196.291	52.8049	-43.9578	-219.739	39.7718	-57.521	-194.537	82.9175	-79.1653	-201.536	56.1548	-61.8288	-195.457	73.7344	-34.4379	-223.12	83.5776	-79.1219	-218.777	54.1135	-61.0915	-212.998	76.912	-25.013	-242.301	79.8198	-68.6302	-234.977	56.6915	-45.7865	-232.172	78.382	-20.0971	-259.62	84.0069	-54.0441	-249.124	66.4046	-33.5898	-237.222	89.1549	-14.3972	-241.852	133.944	-35.2143	-241.728	145.322	2.31061	-207.607	138.542	-20.1465	
198	1.65	-180.473	104.647	1.25453	-185.659	70.2585	-17.8553	-195.164	50.7629	-36.8389	-221.075	40.4146	-53.0696	-194.978	83.0811	-75.0899	-198.354	52.5068	-61.1747	-196.483	72.9043	-30.957	-222.648	77.3746	-77.2282	-222.676	52.6712	-53.1059	-213.686	76.3351	-23.1166	-244.975	79.8434	-66.2675	-239.74	56.0961	-40.6791	-230.04	76.6988	-18.5908	-261.765	85.8944	-51.7507	-250.881	64.9738	-31.1493	-238.627	88.9845	-12.0182	-241.826	133.701	-36.9742	-238.563	146.252	-0.618436	-205.038	139.793	-17.0848	
199	1.65833	-184.713	104.942	-1.19797	-186.122	69.7726	-17.9715	-197.109	48.2217	-38.6638	-220.318	39.5835	-47.6991	-197.455	77.6512	-74.5421	-201.161	51.7016	-57.6488	-193.431	71.0434	-28.0005	-219.149	75.8839	-75.4332	-222.106	51.3477	-53.779	-217.658	73.8356	-21.689	-241.835	77.6616	-64.5747	-237.462	55.0724	-40.703	-231.267	78.9054	-16.1385	-261.89	79.2505	-49.5382	-249.591	64.9159	-30.4732	-240.501	89.2459	-10.3331	-236.909	131.814	-35.5731	-238.306	147.88	-0.972482	-200.127	138.48	-21.0469	
200	1.66667	-182.642	105.017	-0.750585	-184.633	68.6682	-15.2849	-194.63	46.0181	-33.4959	-220.596	39.5196	-44.4909	-197.124	74.3266	-73.01	-199.28	48.9707	-56.0713	-191.718	69.5932	-25.4822	-222.438	77.746	-72.8816	-218.015	47.9959	-48.4378	-217.857	74.3997	-20.5982	-239.615	77.7376	-62.7521	-238.491	52.6582	-39.2386	-228.646	77.1856	-14.626	-259.401	81.8224	-48.2881	-249.163	64.2369	-27.1987	-238.885	91.4102	-7.88819	-239.975	132.322	-32.1329	-240.05	148.401	-0.613072	-205.505	140.117	-16.9188	
201	1.675	-181.354	104.651	0.644323	-180.169	66.1452	-8.1767	-191.687	46.62	-26.6548	-216.967	33.6632	-39.0311	-196.772	74.6095	-69.3671	-199.699	47.2003	-49.7976	-193.736	66.9672	-24.6585	-218.077	72.5819	-71.7664	-218.151	46.6978	-45.3947	-215.851	72.1183	-17.9576	-243.837	70.1847	-60.5091	-238.384	51.3112	-32.1197	-230.751	78.0561	-11.1178	-261.029	76.4894	-46.0909	-248.336	61.6926	-20.8144	-239.073	88.7316	-7.97288	-240.58	128.91	-36.0013	-237.74	147.791	-0.267021	-204.624	139.534	-17.1803	
202	1.68333	-182.049	107.126	5.2784	-184.249	69.7386	-10.8415	-192.382	46.8251	-25.8426	-215.234	29.413	-36.0861	-193.153	74.3486	-67.6066	-195.733	43.6549	-50.1871	-194.559	65.4357	-23.1177	-217.483	71.2414	-69.4598	-214.825	42.9032	-43.8893	-217.291	69.4447	-17.0256	-238.665	67.9548	-58.7966	-233.887	46.6829	-34.6668	-228.176	71.2184	-10.9273	-258.853	70.7311	-43.4044	-247.988	57.2767	-22.8645	-237.109	85.2633	-5.63931	-239.613	125.149	-35.1939	-238.82	146.725	-3.78364	-206.639	134.824	-21.0472	
203	1.69167	-181.688	106.671	2.65548	-180.524	66.5689	-8.35214	-189.202	43.1803	-23.8307	-212.757	31.4405	-32.8701	-195.645	71.8385	-66.8249	-194.15	42.0949	-51.9441	-193.323	63.7254	-21.2038	-218.522	68.729	-67.0619	-213.844	40.9638	-43.7954	-211.294	67.4056	-16.0663	-242.545	65.1441	-55.5129	-231.77	45.4875	-28.0018	-229.719	71.8946	-6.5217	-259.487	71.922	-41.9515	-245.608	55.2233	-19.7948	-235.725	79.9721	-5.95163	-244.556	122.301	-34.4632	-246.262	145.083	-2.35603	-205.589	133.966	-20.0874	
204	1.7	-184.67	108.535	4.42251	-178.38	68.8138	-4.54145	-187.549	47.2966	-16.5578	-211.475	28.8397	-29.6752	-189.439	66.0138	-64.348	-195.186	41.5408	-44.9935	-190.226	65.7332	-18.1134	-218.625	64.2917	-64.7951	-214.215	37.9455	-42.4026	-215.109	66.3615	-13.6597	-237.136	61.9715	-53.9492	-230.15	42.3289	-25.5655	-228.486	64.7944	-5.15784	-258.079	67.9976	-40.4417	-244.997	51.0336	-18.2098	-236.123	76.5127	0.374956	-240.577	121.08	-32.5694	-242.275	142.246	-3.08819	-207.999	134.776	-18.6223	
205	1.70833	-179.894	106.908	7.89519	-176.09	69.7475	2.74042	-185.643	44.2466	-16.0422	-205.802	25.3555	-24.2767	-188.743	67.6859	-59.6643	-186.923	38.6524	-41.3954	-188.357	62.61	-14.6924	-211.924	61.0595	-61.9529	-212.31	35.3821	-37.1696	-211.591	66.6237	-10.6868	-237.441	54.7652	-51.3263	-229.686	37.926	-22.2588	-222.879	60.8708	-2.64287	-252.51	60.1947	-38.6438	-242.624	47.6818	-15.3351	-230.475	71.8159	1.06809	-239.859	119.182	-32.3073	-247.191	139.366	-2.00811	-209.334	132.283	-16.8081	
206	1.71667	-180.854	104.086	9.75832	-175.791	66.9535	4.7697	-183.774	42.8971	-11.2511	-205.443	22.0936	-23.1451	-188.194	62.1341	-56.6227	-184.707	35.7123	-35.248	-183.751	61.0523	-11.1544	-208.17	55.0835	-58.457	-209.775	32.556	-32.8485	-206.839	62.2883	-8.88431	-234.546	53.5918	-49.1362	-225.107	33.6562	-21.6136	-224.234	61.4909	-0.143088	-252.064	60.3503	-35.6757	-238.712	44.6001	-13.1031	-227.664	72.7796	3.38906	-237.082	114.777	-31.1975	-245.591	137.741	-0.494555	-204.557	126.985	-16.5187	
207	1.725	-179.768	102.517	14.6438	-172.793	63.4659	9.3742	-177.985	38.0556	-8.52419	-198.073	17.5544	-18.4478	-180.995	56.269	-53.5677	-180.271	31.7994	-34.7078	-181.041	56.0138	-9.92476	-205.145	50.2601	-55.9718	-204.29	28.0287	-31.0602	-205.433	60.7387	-6.22189	-225.106	48.5605	-47.0979	-225.069	30.171	-20.0237	-219.223	55.5707	0.252142	-250.29	52.557	-33.1125	-237.704	39.3059	-8.75264	-229.902	68.9778	7.15371	-233.563	110.49	-28.5238	-240.688	133.488	-3.32545	-203.434	125.346	-11.3009	
208	1.73333	-176.58	99.4558	19.5098	-170.42	61.8629	10.1683	-171.952	34.3802	-4.58462	-195.364	14.715	-17.5807	-176.961	52.7577	-50.6628	-173.699	27.3769	-30.4026	-176.918	53.5169	-7.44762	-199.861	48.6175	-54.6265	-197.707	25.2342	-28.5304	-202.031	60.0689	-5.76977	-224.535	45.1219	-46.092	-215.208	28.5078	-15.7776	-216.124	56.9031	2.15055	-240.259	49.1003	-32.8872	-230.802	39.5303	-5.62001	-224.246	63.4642	7.72452	-229.72	106.893	-25.8976	-238.122	129.328	-0.737361	-200.958	120.712	-10.7014	
209	1.74167	-173.56	97.9377	19.5514	-163.765	61.7659	14.6461	-166.279	33.2085	-5.2635	-184.939	14.6312	-15.0888	-169.571	53.9688	-48.4701	-169.961	27.0956	-29.4786	-173.052	55.4336	-7.23105	-195.266	44.4133	-53.4222	-191.794	21.9322	-25.1483	-191.465	55.8325	-3.91383	-214.561	41.7011	-44.2142	-207.995	23.6879	-15.2821	-209.267	55.6125	2.78427	-237.263	43.4276	-29.2267	-226.759	34.9186	-2.13817	-220.123	67.11	7.70735	-227.599	102.242	-27.4517	-231.714	123.158	-3.68055	-198.662	119.786	-10.2836	
210	1.75	-169.216	97.9972	14.9874	-157.886	62.0479	13.1852	-158.801	36.144	-3.24119	-173.709	11.3203	-14.6996	-158.26	50.1748	-48.9324	-156.573	27.0916	-26.0914	-165.665	54.1331	-6.69592	-184.7	39.5275	-51.9736	-179	20.2232	-27.0172	-187.447	56.461	-4.56211	-208.241	34.3662	-40.882	-197.5	22.3813	-13.7147	-201.293	52.8625	2.35536	-230.097	36.6982	-28.088	-215.794	32.4945	0.477525	-211.407	64.6961	6.39784	-223.68	98.6609	-27.3243	-234.953	118.603	0.194485	-194.586	114.677	-14.0445	
211	1.75833	-168.485	98.858	14.7017	-151.538	63.2417	9.27353	-147.326	35.6061	-3.19356	-160.018	13.902	-10.5892	-149.703	50.0865	-48.6785	-148.927	28.1705	-26.7359	-158.996	58.8092	-5.83389	-177.453	38.0951	-51.2977	-168.357	19.3486	-24.7159	-180.811	54.777	-3.81771	-196.838	26.9476	-38.7615	-187.259	21.7846	-7.20651	-195.019	54.871	1.95612	-216.367	28.526	-24.6669	-204.58	30.0037	0.484326	-203.42	62.0522	6.27795	-222.837	88.7064	-31.0415	-233.611	109.476	-5.14117	-191.755	114.584	-16.024	
